#!OML:ASF X:\für Bonn\!DataBase\2005_08_12_Daniel\c3d\Daniel.ASF
:FULLY-SPECIFIED
:DEGREES
128
root 6.57089 16.3545 7.78759 888.287 -44.4005 -181.894
lowerback 37.1057 1.20069 -3.66382
upperback 9.84117 -2.65464 -4.37704
thorax -7.53341 -2.15593 -1.58929
lowerneck 0.102471 1.6356 -2.80421
upperneck 3.00714 2.13854 1.44332
head 0.858463 1.04067 0.923312
rclavicle -5.32743e-014 8.42847e-014
rhumerus -38.7027 -1.17324 -88.4355
rradius 67.2172
rwrist 9.65397
rhand -32.382 6.79944
rfingers 7.12502
rthumb -5.61756 -23.1061
lclavicle -5.32743e-014 8.42847e-014
lhumerus -26.063 19.587 79.3105
lradius 69.8173
lwrist -25.7503
lhand -27.2116 3.93684
lfingers 7.12502
lthumb -0.624476 33.9157
rfemur -30.2174 3.17319 19.5696
rtibia 51.0584
rfoot -16.4233 5.69974
rtoes -13.4145
lfemur -3.40238 -0.165713 -25.6756
ltibia 54.9725
lfoot -35.5408 -3.21469
ltoes -3.27593
129
root 6.48192 16.354 7.70166 888.157 -44.2739 -181.858
lowerback 36.9087 1.07792 -3.5007
upperback 9.88013 -2.72253 -4.33127
thorax -7.42791 -2.18908 -1.6042
lowerneck 0.12401 1.66382 -2.71948
upperneck 2.97486 2.17866 1.30439
head 0.845796 1.06043 0.865291
rclavicle 6.36111e-015 -4.29375e-014
rhumerus -38.7366 -1.19742 -88.4743
rradius 67.1919
rwrist 9.62928
rhand -32.6314 6.95822
rfingers 7.12502
rthumb -5.85835 -22.9408
lclavicle 6.36111e-015 -4.29375e-014
lhumerus -26.0963 19.5262 79.4072
lradius 69.8112
lwrist -25.6865
lhand -27.271 3.90978
lfingers 7.12502
lthumb -0.681806 33.8884
rfemur -30.3259 3.58808 19.6025
rtibia 49.5232
rfoot -16.3461 5.13222
rtoes -14.8551
lfemur -2.63149 -0.00327317 -25.6229
ltibia 54.6754
lfoot -35.7308 -3.25018
ltoes -3.2518
130
root 6.39255 16.3543 7.61354 888.076 -44.1272 -181.879
lowerback 36.6599 0.984375 -3.39933
upperback 9.95626 -2.7776 -4.27503
thorax -7.25952 -2.22057 -1.58316
lowerneck 0.0741633 1.69144 -2.73273
upperneck 2.92556 2.21998 1.23707
head 0.838517 1.08118 0.846934
rclavicle -1.66979e-014 1.59028e-014
rhumerus -38.7015 -1.20082 -88.5082
rradius 67.163
rwrist 9.58649
rhand -32.851 7.16686
rfingers 7.12502
rthumb -6.07032 -22.7262
lclavicle -1.66979e-014 1.59028e-014
lhumerus -26.0423 19.5236 79.5469
lradius 69.7625
lwrist -25.6305
lhand -27.3819 3.84725
lfingers 7.12502
lthumb -0.788981 33.8255
rfemur -30.4213 4.05054 19.5855
rtibia 47.9823
rfoot -16.3456 4.59047
rtoes -16.2971
lfemur -1.86328 0.190963 -25.6059
ltibia 54.3738
lfoot -35.9436 -3.24632
ltoes -3.43246
131
root 6.30398 16.3528 7.52554 887.99 -44.0071 -181.892
lowerback 36.4376 0.879001 -3.27163
upperback 10.0117 -2.83807 -4.22172
thorax -7.12433 -2.25199 -1.57651
lowerneck 0.0569106 1.71049 -2.67233
upperneck 2.8713 2.24977 1.09644
head 0.825768 1.09606 0.792906
rclavicle 1.09729e-013 3.33958e-014
rhumerus -38.6497 -1.27385 -88.5413
rradius 67.0837
rwrist 9.53156
rhand -33.0082 7.43976
rfingers 7.12502
rthumb -6.2221 -22.4489
lclavicle 1.09729e-013 3.33958e-014
lhumerus -26.0461 19.5054 79.6916
lradius 69.7486
lwrist -25.5878
lhand -27.4599 3.78727
lfingers 7.12502
lthumb -0.864296 33.7653
rfemur -30.4951 4.52745 19.562
rtibia 46.4483
rfoot -16.3701 4.0227
rtoes -17.6702
lfemur -1.1113 0.370168 -25.5746
ltibia 54.0849
lfoot -36.1181 -3.28603
ltoes -3.53459
